# xmcd
#
# Track frame offsets:
#	182
#	11912
#	23222
#	59505
#	78177
#	110580
#	149045
#	171222
#	208865
#	260472
#
# Disc length: 3604 seconds
#
# Revision: 2
# Processed by: cddbd v1.4PL0 Copyright (c) Steve Scherf et al.
# Submitted via: EasyCDDAExtractor 5.1.0
#
DISCID=920e120a
DTITLE=Santana - Acapulco Sunrise
DYEAR=1900
DGENRE=Blues
TTITLE0=Acapulco Sunrise
TTITLE1=Coconut Grove
TTITLE2=Hot Tamales
TTITLE3=With A Little Help From My Friends
TTITLE4=Every Day I Have The Blues
TTITLE5=Jam In E
TTITLE6=Travelin' Blues
TTITLE7=Jammin' Home
TTITLE8=Latin Tropical
TTITLE9=Let's Get Ourselves Together
EXTD=
EXTT0=
EXTT1=
EXTT2=
EXTT3=
EXTT4=
EXTT5=
EXTT6=
EXTT7=
EXTT8=
EXTT9=
PLAYORDER=
